<svg width="80" height="80" viewBox="0 0 80 80" fill="none" xmlns="http://www.w3.org/2000/svg">
<path d="M40 45C52.4219 45 62.5 34.9219 62.5 22.5C62.5 10.0781 52.4219 0 40 0C27.5781 0 17.5 10.0781 17.5 22.5C17.5 34.9219 27.5781 45 40 45ZM60 50H51.3906C47.9219 51.5937 44.0625 52.5 40 52.5C35.9375 52.5 32.0938 51.5937 28.6094 50H20C8.95313 50 0 58.9531 0 70V72.5C0 76.6406 3.35938 80 7.5 80H72.5C76.6406 80 80 76.6406 80 72.5V70C80 58.9531 71.0469 50 60 50Z" fill="#FCFAFA" fill-opacity="0.8"/>
<path d="M62.4657 22.5C62.4657 34.9029 52.4029 44.9657 40 44.9657C27.5971 44.9657 17.5343 34.9029 17.5343 22.5C17.5343 10.0971 27.5971 0.0342776 40 0.0342776C52.4029 0.0342776 62.4657 10.0971 62.4657 22.5ZM40 52.5343C44.065 52.5343 47.9268 51.6281 51.3981 50.0343H60C71.0279 50.0343 79.9657 58.9721 79.9657 70V72.5C79.9657 76.6217 76.6217 79.9657 72.5 79.9657H7.5C3.37831 79.9657 0.0342776 76.6217 0.0342776 72.5V70C0.0342776 58.9721 8.97206 50.0343 20 50.0343H28.6019C32.0887 51.628 35.935 52.5343 40 52.5343Z" stroke="url(#paint0_linear_566_221)" stroke-opacity="0.5" stroke-width="0.0685552"/>
<defs>
<linearGradient id="paint0_linear_566_221" x1="40" y1="80" x2="40" y2="40" gradientUnits="userSpaceOnUse">
<stop/>
<stop offset="0.0033885" stop-opacity="0.975841"/>
<stop offset="0.453958" stop-opacity="0.860591"/>
<stop offset="1" stop-opacity="0"/>
</linearGradient>
</defs>
</svg>
