<svg width="100" height="100" viewBox="0 0 100 100" fill="none" xmlns="http://www.w3.org/2000/svg">
<g id="Profile Icon">
<circle id="Ellipse 14" cx="50" cy="50" r="50" fill="#318085"/>
<g id="UserOutlined">
<path id="Vector" d="M65.4687 61.2321C64.6266 59.2374 63.4045 57.4255 61.8705 55.8973C60.3412 54.3648 58.5295 53.1429 56.5357 52.2991C56.5178 52.2902 56.4999 52.2857 56.4821 52.2768C59.2633 50.2679 61.0714 46.9955 61.0714 43.3036C61.0714 37.1875 56.116 32.2321 49.9999 32.2321C43.8839 32.2321 38.9285 37.1875 38.9285 43.3036C38.9285 46.9955 40.7365 50.2679 43.5178 52.2813C43.4999 52.2902 43.4821 52.2946 43.4642 52.3036C41.4642 53.1473 39.6696 54.3572 38.1294 55.9018C36.5969 57.4311 35.375 59.2427 34.5312 61.2366C33.7023 63.1886 33.2552 65.2815 33.2142 67.4018C33.213 67.4494 33.2214 67.4968 33.2388 67.5412C33.2562 67.5856 33.2823 67.626 33.3156 67.6601C33.3489 67.6942 33.3887 67.7213 33.4326 67.7399C33.4765 67.7584 33.5237 67.7679 33.5714 67.7679H36.2499C36.4464 67.7679 36.6026 67.6116 36.6071 67.4197C36.6964 63.9732 38.0803 60.7455 40.5267 58.2991C43.058 55.7679 46.4196 54.375 49.9999 54.375C53.5803 54.375 56.9419 55.7679 59.4732 58.2991C61.9196 60.7455 63.3035 63.9732 63.3928 67.4197C63.3973 67.6161 63.5535 67.7679 63.7499 67.7679H66.4285C66.4762 67.7679 66.5234 67.7584 66.5673 67.7399C66.6112 67.7213 66.651 67.6942 66.6843 67.6601C66.7175 67.626 66.7437 67.5856 66.7611 67.5412C66.7785 67.4968 66.7868 67.4494 66.7857 67.4018C66.741 65.2679 66.299 63.192 65.4687 61.2321ZM49.9999 50.9821C47.9508 50.9821 46.0223 50.183 44.5714 48.7321C43.1205 47.2813 42.3214 45.3527 42.3214 43.3036C42.3214 41.2545 43.1205 39.3259 44.5714 37.875C46.0223 36.4241 47.9508 35.625 49.9999 35.625C52.049 35.625 53.9776 36.4241 55.4285 37.875C56.8794 39.3259 57.6785 41.2545 57.6785 43.3036C57.6785 45.3527 56.8794 47.2813 55.4285 48.7321C53.9776 50.183 52.049 50.9821 49.9999 50.9821Z" fill="#FCFAFA"/>
</g>
</g>
</svg>
