<svg width="20" height="20" viewBox="0 0 20 20" fill="none" xmlns="http://www.w3.org/2000/svg">
<path d="M17.7347 15.6161C17.3136 14.6187 16.7026 13.7127 15.9356 12.9487C15.1709 12.1824 14.2651 11.5715 13.2682 11.1496C13.2593 11.1451 13.2503 11.1429 13.2414 11.1384C14.632 10.1339 15.5361 8.49779 15.5361 6.6518C15.5361 3.59377 13.0584 1.11609 10.0003 1.11609C6.9423 1.11609 4.46462 3.59377 4.46462 6.6518C4.46462 8.49779 5.36864 10.1339 6.75926 11.1406C6.75034 11.1451 6.74141 11.1473 6.73248 11.1518C5.73248 11.5737 4.83516 12.1786 4.06507 12.9509C3.29879 13.7156 2.68784 14.6214 2.26596 15.6183C1.8515 16.5943 1.62797 17.6407 1.60748 18.7009C1.60688 18.7247 1.61106 18.7484 1.61977 18.7706C1.62847 18.7928 1.64153 18.813 1.65818 18.8301C1.67482 18.8471 1.6947 18.8607 1.71667 18.8699C1.73863 18.8792 1.76222 18.884 1.78605 18.8839H3.12534C3.22355 18.8839 3.30167 18.8058 3.30391 18.7098C3.34855 16.9866 4.04051 15.3728 5.26373 14.1496C6.52935 12.8839 8.21016 12.1875 10.0003 12.1875C11.7905 12.1875 13.4713 12.8839 14.7369 14.1496C15.9602 15.3728 16.6521 16.9866 16.6968 18.7098C16.699 18.8081 16.7771 18.8839 16.8753 18.8839H18.2146C18.2385 18.884 18.262 18.8792 18.284 18.8699C18.306 18.8607 18.3259 18.8471 18.3425 18.8301C18.3591 18.813 18.3722 18.7928 18.3809 18.7706C18.3896 18.7484 18.3938 18.7247 18.3932 18.7009C18.3709 17.6339 18.1499 16.596 17.7347 15.6161ZM10.0003 10.4911C8.97578 10.4911 8.0115 10.0915 7.28605 9.36609C6.5606 8.64064 6.16105 7.67636 6.16105 6.6518C6.16105 5.62725 6.5606 4.66296 7.28605 3.93752C8.0115 3.21207 8.97578 2.81252 10.0003 2.81252C11.0249 2.81252 11.9892 3.21207 12.7146 3.93752C13.4401 4.66296 13.8396 5.62725 13.8396 6.6518C13.8396 7.67636 13.4401 8.64064 12.7146 9.36609C11.9892 10.0915 11.0249 10.4911 10.0003 10.4911Z" fill="#FCFAFA"/>
</svg>
